<?xml version="1.0" standalone="no"?>
<!DOCTYPE svg PUBLIC "-//W3C//DTD SVG 20010904//EN"
 "http://www.w3.org/TR/2001/REC-SVG-20010904/DTD/svg10.dtd">
<svg version="1.0" xmlns="http://www.w3.org/2000/svg"
 width="1024.000000pt" height="1024.000000pt" viewBox="0 0 1024.000000 1024.000000"
 preserveAspectRatio="xMidYMid meet">
<metadata>
Created by potrace 1.16, written by Peter Selinger 2001-2019
</metadata>
<g transform="translate(0.000000,1024.000000) scale(0.100000,-0.100000)"
fill="#000000" stroke="none">
<path d="M4805 8396 c-23 -15 -278 -51 -301 -42 -8 3 -13 2 -10 -2 7 -11 -139
-36 -155 -27 -8 5 -10 4 -5 -3 5 -8 -3 -10 -26 -7 -39 7 -42 7 -88 4 -40 -2
-71 -26 -51 -38 7 -5 -12 -15 -48 -25 -34 -9 -109 -35 -168 -57 -82 -30 -109
-36 -115 -27 -7 11 -11 5 -10 -12 0 -3 -14 -4 -32 -2 -24 3 -35 -1 -40 -13 -4
-13 -2 -16 9 -11 44 18 44 14 0 -10 -67 -36 -164 -78 -143 -61 10 8 15 17 11
20 -9 9 -33 -12 -33 -29 0 -7 -9 -18 -19 -24 -26 -13 -34 -13 -25 2 5 7 3 8
-5 4 -7 -5 -10 -11 -7 -14 6 -5 -62 -51 -76 -52 -4 0 -5 9 -3 19 3 14 -1 18
-12 14 -11 -4 -11 -8 -3 -13 9 -6 9 -9 -1 -13 -11 -4 -11 -6 1 -6 8 -1 -3 -13
-24 -27 -23 -16 -41 -22 -45 -16 -4 6 -12 4 -21 -6 -13 -14 -12 -15 3 -9 29
11 19 -2 -15 -19 -18 -10 -49 -29 -68 -44 -130 -99 -132 -100 -152 -89 -12 7
-18 7 -14 1 3 -5 -1 -15 -9 -22 -8 -7 -13 -16 -10 -20 2 -4 -34 -40 -82 -81
-93 -80 -305 -290 -299 -297 2 -2 46 40 97 94 167 172 420 372 634 501 467
281 973 425 1550 440 682 19 1283 -128 1800 -440 147 -89 212 -134 361 -251
69 -54 127 -96 129 -94 4 4 -184 155 -264 211 -66 47 -82 63 -73 71 3 4 -2 4
-12 0 -15 -6 -17 -4 -11 6 5 8 4 11 -2 7 -6 -4 -19 1 -29 9 -10 9 -13 12 -5 8
10 -5 12 -3 7 5 -5 7 -14 10 -21 7 -17 -6 -141 69 -137 84 1 6 -2 9 -8 5 -16
-10 -50 14 -44 30 4 8 2 15 -4 15 -6 0 -19 3 -29 6 -10 3 -7 -2 7 -10 37 -23
11 -18 -30 5 -21 12 -26 17 -12 14 12 -4 22 -2 22 3 0 13 -48 22 -52 10 -2 -5
-42 9 -88 31 -47 22 -79 40 -72 40 7 1 22 -4 33 -9 13 -7 19 -7 19 -1 0 13
-45 25 -58 17 -6 -3 -56 12 -113 34 -57 22 -90 39 -74 37 17 -1 32 -5 35 -9 8
-10 50 2 50 14 0 5 -4 6 -10 3 -5 -3 -25 -2 -43 3 -21 6 -40 6 -50 0 -11 -6
-42 -1 -94 14 -43 12 -70 24 -61 26 15 3 16 6 5 16 -7 7 -19 13 -27 14 -84 11
-103 11 -85 3 11 -5 32 -10 47 -10 15 -1 30 -6 34 -13 5 -8 0 -9 -17 -5 -13 4
-47 12 -76 18 -29 7 -50 15 -48 20 3 4 -3 5 -14 2 -10 -3 -54 2 -97 11 -116
23 -217 35 -419 52 -196 16 -241 17 -420 8 -85 -4 -116 -2 -105 5 13 10 13 11
0 10 -8 0 -24 -6 -35 -13z"/>
<path d="M4895 8293 c-313 -21 -713 -109 -994 -220 -401 -158 -800 -424 -1085
-724 -86 -91 -224 -259 -213 -259 3 0 50 53 105 118 168 197 307 329 328 311
13 -10 42 17 30 28 -4 4 -11 1 -16 -7 -6 -8 -10 -10 -10 -5 0 6 24 29 52 50
75 57 99 71 59 36 -19 -17 -32 -33 -29 -36 8 -8 57 36 60 54 3 16 87 85 94 78
2 -2 -14 -17 -36 -32 -23 -16 -39 -34 -36 -41 3 -7 -19 -30 -47 -52 -29 -22
-80 -65 -115 -96 -64 -57 -91 -74 -56 -35 19 22 19 22 -4 8 -12 -8 -20 -19
-18 -25 6 -15 -58 -77 -68 -67 -4 5 -6 3 -4 -3 4 -15 -133 -164 -145 -157 -6
3 -7 1 -3 -5 4 -7 1 -12 -9 -12 -9 0 -15 -6 -12 -12 2 -7 -9 -30 -26 -51 -23
-30 -32 -35 -39 -25 -7 9 -8 8 -4 -5 7 -23 -32 -77 -50 -70 -8 3 -14 0 -14 -7
0 -6 5 -8 11 -4 6 3 3 -5 -6 -20 -16 -24 -34 -39 -20 -16 3 6 1 10 -5 10 -6 0
-10 -6 -9 -12 3 -26 -1 -38 -13 -36 -7 2 -12 -6 -13 -17 0 -11 -5 -20 -12 -20
-6 0 -15 -4 -20 -9 -5 -5 -3 -6 5 -2 16 10 16 -9 -1 -23 -11 -9 -13 -4 -12 21
1 18 7 34 14 36 6 2 11 11 11 20 0 8 7 24 17 34 9 10 14 21 11 24 -3 3 -16
-12 -29 -33 -12 -21 -31 -47 -41 -58 -23 -25 -71 -105 -63 -105 3 0 18 20 34
46 16 25 32 40 36 35 3 -6 1 -11 -6 -11 -9 0 -9 -3 0 -14 15 -18 -4 -61 -21
-50 -7 4 -8 3 -4 -4 8 -13 -41 -92 -57 -92 -6 0 -8 -3 -4 -6 3 -4 -5 -28 -18
-55 -18 -34 -29 -47 -40 -43 -10 4 -15 0 -15 -11 0 -9 5 -13 10 -10 6 4 1 -14
-12 -39 -12 -25 -25 -43 -28 -41 -4 2 -12 -7 -19 -21 -6 -14 -7 -23 -1 -19 6
4 7 -1 3 -11 -4 -11 -8 -13 -11 -6 -9 28 -24 10 -19 -23 3 -19 2 -35 -4 -35
-5 0 -8 -3 -7 -7 1 -5 -6 -29 -16 -55 -16 -40 -20 -45 -32 -33 -11 11 -9 24
16 86 17 40 35 78 41 86 7 7 7 13 2 13 -19 0 -85 -161 -87 -211 -2 -27 1 -50
6 -51 5 -2 -4 -39 -21 -83 -16 -44 -30 -72 -30 -63 -1 9 -4 18 -8 21 -5 2 -3
3 3 1 15 -3 25 44 10 49 -7 2 -5 17 6 43 9 21 20 50 23 64 12 49 -14 -6 -51
-106 -19 -54 -32 -104 -28 -113 21 -51 -5 -225 -32 -214 -8 3 -14 9 -14 15 0
5 4 7 9 4 4 -3 6 5 4 17 -2 12 1 42 7 67 16 63 24 106 17 100 -22 -21 -108
-435 -106 -514 0 -22 10 17 20 89 11 71 25 134 30 140 7 7 8 5 4 -6 -4 -10 -2
-20 4 -24 6 -3 11 -16 10 -28 -1 -20 -2 -20 -8 3 -6 21 -9 15 -20 -35 -10 -43
-10 -60 -2 -63 6 -2 11 -10 11 -18 0 -9 -3 -13 -7 -11 -5 3 -8 -18 -9 -46 -1
-112 -18 -411 -22 -399 -2 6 -8 10 -13 6 -5 -3 -9 0 -9 5 0 6 5 11 10 11 7 0
7 6 1 18 -6 11 -6 24 -1 32 5 8 9 46 8 85 0 49 -3 63 -8 45 -5 -14 -6 16 -3
65 3 50 3 87 0 84 -17 -15 -28 -345 -17 -530 14 -254 19 -291 38 -307 13 -10
14 -15 4 -21 -22 -14 27 -255 98 -483 38 -121 135 -360 195 -478 39 -78 159
-279 164 -275 2 3 -3 15 -12 28 -14 21 -13 23 4 24 16 2 59 -43 59 -61 0 -3
18 -29 40 -58 22 -29 40 -64 40 -78 0 -19 -3 -21 -9 -11 -5 8 -7 21 -3 29 4
11 1 14 -11 9 -9 -3 -19 -2 -22 3 -3 4 1 10 7 13 10 3 10 7 -1 20 -7 9 -17 14
-22 11 -5 -3 -6 1 -3 9 3 8 1 18 -4 21 -11 7 -25 -36 -14 -44 4 -3 25 -30 47
-60 50 -70 156 -200 163 -200 3 0 -3 9 -12 19 -10 11 -15 25 -10 32 4 7 3 10
-3 6 -6 -4 -23 9 -37 28 -20 26 -25 39 -18 52 9 15 10 14 20 -3 10 -20 12 -25
12 -46 0 -10 2 -10 9 0 6 10 15 4 34 -21 14 -19 23 -38 19 -42 -4 -5 -2 -5 5
-1 6 3 14 2 18 -4 3 -5 2 -10 -3 -10 -6 0 -8 -10 -5 -22 4 -18 2 -20 -6 -8 -5
8 -12 12 -15 9 -3 -3 29 -42 70 -87 71 -77 100 -100 88 -68 -4 10 2 12 19 9
26 -5 80 -54 77 -70 0 -4 9 -11 22 -15 13 -3 17 -6 10 -7 -10 -1 -10 -5 2 -17
9 -8 20 -13 25 -9 5 3 12 1 16 -5 3 -5 1 -10 -6 -10 -7 0 -2 -9 11 -20 13 -11
20 -23 17 -26 -6 -6 -167 132 -167 143 0 3 11 -2 25 -11 14 -9 25 -12 25 -7 0
16 -37 32 -55 25 -14 -6 -9 -15 27 -51 24 -25 70 -66 103 -91 33 -25 83 -66
110 -91 28 -24 86 -68 130 -98 44 -30 100 -69 125 -87 25 -18 63 -43 85 -55
22 -12 30 -15 18 -5 -65 48 14 39 105 -13 37 -21 76 -41 86 -46 10 -4 16 -10
13 -13 -3 -4 -22 4 -42 16 -20 12 -39 20 -41 17 -8 -8 75 -49 85 -42 5 3 33
-6 61 -19 44 -21 49 -25 29 -28 -24 -4 -63 9 -131 42 -21 10 -38 15 -38 11 0
-5 45 -29 100 -55 98 -45 144 -61 85 -29 -29 16 -29 16 -7 24 27 10 99 -20 95
-39 -2 -7 2 -12 7 -12 6 0 10 4 10 10 0 5 7 7 16 3 15 -5 15 -7 -1 -15 -11 -7
-27 -6 -46 2 -16 7 -32 10 -35 8 -11 -12 349 -141 491 -176 514 -129 1071
-130 1612 -3 146 35 181 46 383 126 131 52 194 80 130 59 -14 -4 -39 -8 -57
-8 -18 1 -30 -3 -27 -7 7 -13 -15 -21 -32 -11 -23 13 112 72 149 65 26 -5 26
-6 10 -20 -10 -8 -13 -12 -8 -10 68 31 171 83 215 108 30 17 75 42 100 56 52
29 190 123 190 130 0 2 -4 2 -9 -1 -5 -3 -11 3 -14 14 -6 24 32 51 62 43 15
-4 21 -1 21 12 0 12 -4 15 -13 9 -7 -5 -4 -1 6 9 16 14 23 15 34 5 12 -10 12
-13 -1 -20 -9 -5 -16 -13 -16 -19 0 -5 16 3 35 18 19 15 35 32 35 37 0 5 -8 2
-19 -8 -15 -14 -20 -14 -29 -3 -15 18 3 37 35 37 15 0 21 5 17 14 -3 7 5 20
18 28 13 9 33 26 46 37 12 13 28 19 35 15 6 -4 9 -4 5 1 -11 12 11 35 28 28 7
-3 12 -9 9 -14 -3 -4 -13 -5 -22 -2 -10 4 -14 2 -10 -4 9 -15 -42 -75 -55 -66
-7 4 -8 1 -3 -7 6 -10 3 -12 -11 -8 -14 4 -20 0 -21 -13 -1 -15 2 -17 15 -10
35 19 322 293 322 308 0 4 -16 -8 -35 -27 -19 -19 -35 -28 -35 -21 0 11 -3 11
-17 0 -16 -13 -17 -12 -4 3 7 10 18 15 24 11 5 -3 8 -2 5 3 -3 5 16 34 43 64
42 46 49 51 46 30 -2 -14 -8 -25 -13 -25 -5 0 -15 -4 -23 -9 -11 -7 -11 -10 3
-18 13 -7 22 -3 39 19 12 15 31 37 42 49 57 59 58 61 35 67 -17 4 -19 3 -10
-8 12 -15 3 -24 -30 -30 -16 -3 -18 -1 -11 13 5 10 19 26 32 37 13 12 19 14
14 5 -8 -13 -7 -13 9 -1 10 8 13 17 7 20 -5 4 4 23 22 45 32 37 33 38 32 12
-1 -14 -10 -35 -20 -46 -10 -11 -16 -23 -13 -26 9 -8 138 173 138 193 0 14 -2
15 -9 4 -6 -9 -11 -10 -15 -2 -9 14 2 33 14 26 5 -3 12 0 16 6 5 8 3 9 -6 4
-8 -5 -11 -3 -8 6 3 8 11 14 18 14 7 0 15 7 17 15 4 13 3 13 -6 0 -6 -8 -11
-11 -11 -7 0 17 42 67 56 67 12 0 11 -6 -5 -29 -24 -33 -45 -85 -32 -77 13 8
131 205 131 219 0 6 9 20 19 31 35 37 69 128 60 159 -8 30 7 90 21 82 5 -3 13
3 19 12 19 33 12 -9 -9 -56 -26 -55 -25 -67 1 -19 21 40 117 276 129 318 4 14
4 48 0 75 -6 41 -2 72 24 167 17 65 36 118 43 118 7 0 11 19 10 53 -1 66 14
178 23 172 4 -2 5 19 3 48 -2 34 0 45 5 33 5 -11 8 135 7 335 -1 322 -3 367
-25 499 -13 80 -24 159 -24 177 -1 17 -3 29 -5 27 -3 -2 -22 59 -43 136 -21
77 -54 182 -72 234 -27 74 -32 100 -26 127 4 19 8 32 9 29 1 -3 17 -50 36
-105 19 -57 31 -103 26 -109 -5 -6 -4 -20 0 -31 9 -18 9 -18 5 2 -2 13 0 25 4
28 5 3 11 -9 15 -27 3 -18 16 -62 27 -97 11 -35 21 -87 22 -116 1 -37 5 -51
14 -48 6 3 12 3 12 0 0 -3 9 -66 19 -139 21 -146 34 -257 36 -303 1 -16 2 -67
3 -112 1 -52 6 -83 13 -83 7 0 9 16 5 48 -3 26 -7 72 -7 102 -5 158 -39 390
-86 570 -56 220 -155 496 -161 452 -2 -12 -8 -22 -13 -22 -6 0 -5 -8 1 -21 7
-11 10 -23 7 -25 -3 -3 -44 86 -85 185 -4 10 -1 12 8 6 9 -5 11 -4 6 4 -4 6
-11 9 -15 7 -14 -9 -69 119 -65 150 3 23 2 24 -4 6 -6 -19 -17 -5 -81 100 -41
68 -96 154 -123 192 -26 38 -45 73 -41 79 3 5 1 7 -5 3 -6 -3 -38 30 -75 76
-35 46 -105 128 -155 182 -50 55 -89 103 -86 107 2 4 -3 12 -11 19 -8 7 -15 9
-15 5 0 -4 -7 -2 -15 5 -8 7 -12 17 -8 23 4 6 1 7 -6 2 -15 -9 -103 73 -94 88
3 6 1 7 -6 3 -14 -9 -103 63 -94 77 3 6 1 7 -5 3 -6 -4 -32 10 -58 29 -54 42
-246 168 -317 210 -37 21 -45 30 -35 37 10 7 9 8 -4 4 -10 -3 -26 -2 -35 1
-15 6 -15 7 3 15 15 7 14 7 -6 4 -14 -3 -32 0 -40 5 -13 9 -12 10 3 5 9 -3 17
0 17 5 0 7 -9 9 -21 6 -27 -7 -49 1 -43 17 3 8 -11 19 -36 29 -50 19 -53 12
-4 -9 20 -8 34 -17 31 -20 -2 -3 -40 12 -83 31 -248 114 -535 200 -804 241
-66 11 -118 24 -123 31 -4 7 -13 13 -20 13 -7 0 -6 -4 3 -10 10 -7 -18 -8 -85
-3 -121 10 -610 9 -679 0 -32 -4 -55 -2 -63 5 -11 9 -13 8 -11 -3 2 -10 -8
-15 -32 -16 l-35 -1 30 8 30 8 -30 0 c-16 0 -41 -4 -55 -8 l-25 -8 25 -2 c14
-1 -32 -12 -101 -25 -69 -14 -197 -45 -285 -71 -87 -26 -171 -47 -186 -47 -15
0 -25 -3 -23 -7 2 -3 -33 -21 -78 -40 -45 -18 -138 -59 -206 -91 -122 -58
-173 -78 -98 -38 22 11 36 23 33 26 -3 3 -29 -8 -57 -26 -28 -17 -57 -30 -63
-28 -13 5 195 110 318 161 163 68 358 128 411 129 37 0 45 2 30 8 -17 8 -16 9
7 6 15 -2 25 0 22 4 -3 5 -3 9 -1 9 2 0 58 11 123 24 213 43 353 59 510 60 84
1 150 4 147 9 -2 4 3 7 11 7 8 0 14 -6 12 -12 -1 -7 -1 -10 1 -5 20 35 704
-39 726 -79 4 -7 13 -14 20 -14 7 0 6 4 -3 10 -28 18 12 11 146 -25 164 -44
305 -96 297 -109 -4 -5 1 -7 12 -3 28 11 271 -101 479 -220 15 -9 17 -13 5
-13 -9 0 -19 3 -23 7 -3 4 -14 8 -24 9 -15 2 -14 1 2 -12 11 -8 31 -13 45 -12
27 2 72 -17 70 -30 -1 -4 -1 -14 0 -22 1 -12 3 -13 10 -1 7 11 14 10 37 -6 16
-11 46 -31 66 -44 20 -13 35 -26 32 -30 -2 -4 3 -12 11 -19 12 -10 15 -10 15
0 0 7 15 1 36 -15 19 -15 37 -25 40 -22 8 8 -272 197 -398 268 -303 171 -680
302 -1033 359 -255 41 -565 58 -790 43z m605 -78 c172 -22 269 -40 450 -85
510 -127 1017 -414 1385 -784 312 -314 554 -680 708 -1071 126 -320 180 -543
212 -884 39 -402 -2 -804 -122 -1191 -190 -620 -525 -1119 -1018 -1521 -266
-217 -626 -419 -940 -526 -520 -177 -1068 -217 -1635 -118 -417 73 -825 240
-1190 486 -127 85 -380 301 -507 432 -444 458 -730 1041 -822 1672 -59 409
-50 763 29 1153 39 188 143 500 215 641 16 33 24 60 20 74 -4 15 -3 18 3 9 6
-9 26 21 67 100 97 188 279 449 442 633 175 198 450 423 697 571 376 225 872
381 1346 423 145 13 509 5 660 -14z m-2425 -5496 c19 -17 32 -36 28 -42 -3 -5
-2 -7 4 -4 14 9 95 -52 86 -65 -3 -6 -2 -8 3 -5 6 3 30 -10 54 -29 24 -19 59
-44 78 -56 20 -12 30 -24 24 -26 -16 -5 -5 -22 14 -22 10 0 12 5 7 13 -7 11
11 1 87 -50 35 -23 35 -32 -1 -13 -15 9 -19 7 -19 -5 0 -12 -11 -8 -47 17 -26
18 -51 36 -56 39 -4 3 -10 15 -11 25 -2 10 -9 19 -17 20 -37 3 -46 6 -69 25
-16 14 -19 19 -7 15 9 -3 17 -1 17 4 0 10 -2 11 -37 15 -19 2 -69 36 -150 102
-8 6 -12 17 -8 23 4 6 -1 20 -11 31 -27 29 -9 23 31 -12z"/>
<path d="M4585 7314 c-214 -89 -482 -207 -621 -275 -104 -50 -151 -80 -178
-109 -35 -39 -45 -60 -28 -60 5 0 159 65 343 145 581 253 593 259 613 323 10
31 -1 29 -129 -24z"/>
<path d="M6713 7314 c-164 -43 -280 -87 -782 -293 -188 -77 -318 -141 -361
-178 -29 -24 -46 -63 -27 -63 6 0 63 22 126 49 263 113 721 290 940 365 71 24
139 50 151 58 22 13 67 89 53 87 -5 0 -49 -11 -100 -25z"/>
<path d="M3359 7215 c-38 -59 -46 -77 -74 -153 l-25 -69 30 -299 c16 -165 39
-411 50 -549 11 -137 22 -262 25 -277 7 -40 -62 -125 -260 -323 -172 -172
-225 -213 -342 -261 -100 -41 -211 -27 -249 31 -11 18 -19 53 -22 103 -4 89
31 244 93 403 19 50 35 98 35 107 0 33 -43 -24 -92 -122 -164 -326 -182 -624
-45 -742 73 -62 191 -75 300 -34 70 26 187 103 262 172 115 105 292 333 355
457 l22 44 44 -51 c108 -123 260 -131 490 -23 177 83 413 263 471 359 l20 33
0 -38 c-2 -90 14 -153 48 -198 34 -44 34 -45 28 -123 -4 -53 -2 -81 5 -86 15
-9 27 17 43 87 7 32 15 60 19 62 3 2 26 -3 51 -12 67 -24 292 -21 434 7 115
23 305 88 336 116 17 15 20 14 45 -15 63 -75 184 -111 374 -111 242 0 410 41
705 170 501 220 721 285 933 278 92 -3 94 -2 117 25 31 35 88 133 103 174 11
32 10 33 -26 42 -20 6 -89 24 -152 41 -146 40 -254 85 -515 219 -264 136 -292
146 -421 146 -99 0 -103 -1 -186 -43 -151 -74 -283 -216 -355 -382 -51 -117
-45 -121 52 -35 100 89 201 156 268 179 138 46 329 -3 599 -156 l108 -60 -133
-55 c-382 -157 -614 -234 -811 -268 -150 -26 -415 -18 -501 15 l-23 9 24 49
c35 74 57 178 49 238 -21 173 -171 302 -362 312 -137 7 -258 -44 -386 -167
-75 -71 -180 -206 -241 -309 -25 -43 -54 -87 -65 -96 -58 -52 -102 86 -70 223
5 24 8 45 6 47 -2 3 -51 -42 -109 -99 -122 -122 -212 -191 -363 -281 -163 -98
-266 -132 -376 -124 -66 5 -103 26 -133 77 -39 66 -47 131 -97 761 -10 127
-60 504 -77 580 l-8 35 -25 -40z m1985 -856 c100 -37 167 -102 182 -176 5 -26
0 -37 -30 -70 -98 -109 -361 -182 -610 -170 -102 5 -190 19 -204 32 -2 2 13
36 34 75 72 137 223 271 361 320 71 25 183 21 267 -11z"/>
<path d="M5490 7211 c-58 -18 -567 -225 -715 -291 -222 -99 -322 -155 -346
-193 -37 -61 -29 -61 120 2 64 28 197 84 296 127 99 42 241 100 315 129 279
109 325 128 338 138 13 10 52 80 52 92 0 7 -30 5 -60 -4z"/>
<path d="M3003 6728 c-31 -33 -127 -232 -152 -312 -49 -159 -4 -306 93 -306
52 0 110 89 122 187 l5 48 -23 -30 c-32 -43 -66 -75 -76 -75 -5 0 -22 10 -37
22 -26 21 -27 24 -23 97 5 76 35 168 102 311 37 80 32 105 -11 58z"/>
<path d="M3982 6658 c-47 -69 -74 -129 -68 -152 7 -28 148 -176 167 -176 32 0
99 95 99 141 0 13 -9 41 -20 63 -21 43 -125 166 -140 166 -5 0 -22 -19 -38
-42z"/>
<path d="M7130 5786 c-183 -70 -320 -158 -320 -206 0 -11 2 -20 4 -20 2 0 46
20 97 43 52 24 138 63 193 87 95 42 116 60 131 108 9 29 -1 28 -105 -12z"/>
<path d="M5628 5467 c-31 -47 -77 -145 -83 -178 -3 -19 5 -111 20 -213 14 -98
32 -237 40 -310 8 -72 25 -230 39 -351 14 -121 31 -290 38 -377 14 -189 8
-219 -64 -292 -47 -48 -48 -48 -103 -44 -91 8 -124 54 -133 185 -3 56 -9 83
-17 83 -7 0 -28 -35 -47 -77 -68 -149 -144 -223 -227 -223 -88 0 -127 53 -116
156 9 82 1 82 -80 5 -87 -84 -188 -133 -286 -139 -85 -5 -136 12 -197 63 -82
69 -114 217 -157 715 -44 523 -80 890 -91 948 -5 27 -9 30 -21 20 -21 -17 -78
-133 -96 -195 -13 -45 -14 -66 -2 -165 7 -62 18 -171 25 -243 7 -71 20 -209
31 -305 10 -96 24 -241 31 -323 l12 -147 -38 -39 c-66 -68 -223 -121 -354
-121 -68 0 -168 23 -220 49 -116 59 -169 186 -107 259 49 58 115 48 176 -28
18 -22 36 -40 41 -40 17 0 39 72 45 149 10 133 -40 209 -132 199 -27 -4 -59
-16 -81 -33 -76 -58 -171 -208 -194 -307 -25 -111 -5 -246 49 -314 11 -15 21
-30 21 -33 0 -4 -17 -13 -37 -20 -100 -36 -216 -141 -258 -234 -67 -146 -54
-364 30 -528 26 -49 123 -179 135 -179 20 0 9 74 -30 193 -44 137 -70 250 -70
305 1 105 113 214 289 280 59 22 87 26 251 31 l185 6 76 36 c45 22 108 64 151
102 l75 65 32 -98 c64 -196 149 -283 305 -311 54 -10 80 -10 128 0 78 16 158
54 210 101 l42 37 31 -50 c36 -60 97 -97 159 -97 51 0 131 44 194 107 25 26
48 41 50 35 22 -68 105 -122 188 -122 93 0 187 86 231 211 10 27 20 49 23 49
3 0 14 -21 24 -47 58 -141 224 -214 382 -168 76 22 177 77 222 124 l36 36 33
-65 c64 -128 137 -188 241 -197 118 -11 192 61 222 215 38 193 -33 325 -190
354 -53 10 -72 9 -132 -6 -38 -10 -71 -16 -72 -14 -23 28 -107 724 -121 1003
-4 90 -3 107 7 91 7 -11 24 -33 38 -50 14 -17 34 -44 44 -59 10 -16 20 -27 22
-24 12 11 -24 112 -82 231 -45 92 -66 148 -74 200 -6 39 -15 87 -19 106 l-7
35 -37 -50 c-51 -70 -82 -157 -80 -227 1 -31 11 -128 22 -215 12 -87 37 -284
56 -438 20 -154 48 -365 64 -470 33 -217 34 -211 -45 -266 -143 -98 -298 -93
-389 14 -62 72 -86 164 -104 392 -61 766 -122 1265 -155 1265 -2 0 -10 -10
-18 -23z m1090 -1766 c69 -35 80 -72 30 -100 -24 -14 -30 -14 -61 1 -37 18
-80 68 -92 107 -7 24 -6 24 39 18 25 -4 63 -15 84 -26z"/>
<path d="M6959 5437 c-15 -18 -41 -58 -58 -89 -51 -90 -51 -121 -1 -468 9 -59
32 -236 61 -455 5 -44 23 -174 40 -290 52 -369 61 -462 56 -597 -3 -71 -3
-128 -1 -128 2 0 17 27 34 59 72 143 98 329 81 582 -8 131 -76 744 -107 973
-4 26 -3 46 2 46 6 0 34 -16 64 -35 30 -19 58 -35 62 -35 10 0 -15 51 -54 108
-48 70 -90 169 -112 265 -12 50 -26 92 -31 94 -6 2 -22 -12 -36 -30z"/>
<path d="M7429 5418 c-31 -33 -77 -137 -84 -194 -4 -30 -1 -78 9 -124 8 -41
24 -147 36 -235 11 -88 27 -209 35 -270 79 -583 94 -852 56 -990 -11 -39 -23
-78 -26 -87 -4 -11 -3 -18 4 -18 6 0 11 4 11 10 0 5 13 30 29 56 42 65 86 193
105 303 29 169 19 378 -39 823 -14 108 -25 209 -25 224 0 28 1 27 55 -26 69
-68 71 -53 11 80 -56 123 -110 292 -127 393 -7 42 -16 77 -21 77 -4 0 -17 -10
-29 -22z"/>
<path d="M5010 5371 c-127 -52 -513 -241 -572 -280 -52 -35 -85 -78 -71 -92 6
-6 78 23 184 72 96 45 226 105 289 134 210 96 256 122 279 158 12 19 21 37 21
41 0 14 -40 4 -130 -33z"/>
<path d="M3455 4972 c-232 -101 -511 -243 -562 -287 -36 -31 -62 -79 -50 -92
3 -2 83 36 178 86 166 85 305 151 503 236 49 22 102 50 118 63 32 27 39 72 11
72 -10 0 -99 -35 -198 -78z"/>
<path d="M5175 4758 c-58 -111 -78 -178 -79 -268 -1 -72 2 -90 22 -122 26 -42
49 -53 85 -39 34 13 57 50 72 116 15 63 10 74 -17 40 -27 -35 -65 -33 -79 3
-11 29 -7 87 18 225 8 48 13 90 10 93 -2 3 -17 -19 -32 -48z"/>
<path d="M4758 4624 c-55 -29 -75 -107 -37 -145 21 -21 44 -20 87 7 22 14 23
13 48 -40 29 -64 51 -161 60 -268 10 -117 35 -98 49 37 14 147 -27 305 -99
381 -45 47 -65 52 -108 28z"/>
<path d="M2856 4384 c-59 -94 -145 -273 -161 -339 -39 -155 5 -265 107 -265
30 0 104 76 127 130 26 59 42 138 30 145 -4 3 -13 -5 -20 -17 -21 -41 -72 -88
-96 -88 -33 0 -73 46 -73 84 0 48 34 160 85 279 25 60 45 113 42 120 -2 6 -20
-16 -41 -49z"/>
<path d="M3900 3185 c-166 -77 -234 -114 -257 -140 -28 -30 -43 -65 -29 -65 3
0 58 24 123 54 65 29 182 81 261 116 79 34 152 70 162 79 26 21 17 61 -14 61
-11 0 -122 -47 -246 -105z"/>
<path d="M5742 3238 c-5 -7 -15 -32 -21 -55 -18 -66 -69 -83 -111 -38 -31 33
-46 32 -66 -7 -26 -53 -45 -68 -80 -68 -39 0 -74 38 -74 81 0 27 -29 69 -48
69 -5 0 -59 -34 -120 -75 -223 -149 -533 -278 -762 -319 -125 -22 -170 -35
-170 -46 0 -38 292 -9 446 44 143 49 240 96 439 210 44 25 88 46 97 46 9 0 31
-20 48 -45 39 -57 66 -75 111 -75 38 0 99 39 99 63 1 33 17 38 54 16 46 -27
93 -20 141 22 38 34 75 103 75 140 0 41 -35 64 -58 37z"/>
<path d="M6411 3164 c-12 -9 -77 -41 -144 -71 -153 -68 -220 -108 -241 -143
-38 -65 -26 -61 261 76 119 57 183 104 183 135 0 24 -27 25 -59 3z"/>
<path d="M7280 2220 c0 -24 16 -26 28 -4 7 12 11 13 17 4 8 -13 -25 -41 -62
-52 -28 -8 -28 -5 -5 18 15 15 15 17 1 12 -9 -4 -22 -1 -28 5 -9 9 -11 8 -5
-6 5 -13 2 -16 -11 -10 -11 4 -22 0 -29 -8 -6 -9 -18 -18 -27 -21 -8 -3 -25
-29 -37 -57 -12 -29 -17 -49 -12 -46 6 4 10 1 10 -5 0 -7 6 -10 13 -7 6 2 11
8 10 13 -1 5 16 9 38 9 21 1 38 3 37 6 -2 3 4 14 12 25 14 18 14 18 -6 2 -19
-16 -20 -16 -20 2 0 11 6 20 13 20 8 0 10 7 6 18 -3 9 -3 14 2 10 4 -4 14 -3
22 4 7 6 16 8 19 5 3 -3 24 8 47 24 22 16 47 29 56 29 14 0 14 2 1 9 -8 6 -17
8 -21 5 -4 -2 -10 0 -14 6 -3 5 -17 10 -31 10 -17 0 -24 -5 -24 -20z"/>
<path d="M3730 2154 c0 -3 17 -12 38 -21 20 -8 48 -23 62 -33 14 -10 52 -27
85 -38 154 -52 156 -53 150 -73 -5 -14 -2 -17 9 -13 9 3 14 10 11 15 -5 8 22
1 160 -42 53 -17 55 -18 18 -13 -36 5 -43 3 -43 -11 0 -12 6 -15 20 -10 24 8
97 -11 103 -28 4 -7 6 -6 6 4 1 9 -9 19 -21 22 -12 4 -20 9 -17 12 6 5 171
-24 284 -50 l60 -14 -50 6 c-27 2 -64 8 -82 13 -28 7 -34 5 -48 -16 -9 -14
-20 -22 -26 -18 -6 3 -3 11 8 19 17 13 16 14 -10 24 -40 15 -48 12 -12 -4 17
-8 23 -14 13 -15 -9 0 -18 -3 -21 -7 -2 -5 -2 -2 -1 5 2 6 -4 12 -12 12 -8 0
-13 -4 -9 -9 3 -5 1 -12 -4 -15 -5 -3 -11 4 -14 15 -4 13 -10 18 -17 14 -9 -6
-9 -10 1 -16 11 -7 10 -9 -4 -9 -10 0 -15 -5 -12 -10 4 -6 10 -8 14 -6 4 3 13
1 21 -5 11 -6 7 -9 -15 -10 -51 -2 76 -25 300 -55 77 -11 228 -12 213 -2 -15
9 68 -1 92 -11 8 -4 29 -6 45 -4 54 7 89 6 164 -2 63 -7 73 -6 66 6 -7 12 -6
12 7 1 13 -10 41 -12 125 -5 59 4 96 9 81 11 -16 2 -28 7 -28 11 0 4 27 3 60
-3 41 -7 63 -7 70 0 7 7 2 10 -17 9 -15 -1 -20 0 -10 2 9 2 17 11 17 19 0 8 7
14 15 14 9 0 15 -9 15 -21 0 -21 3 -21 69 -15 89 9 370 70 534 116 41 12 49
25 15 27 -18 2 -20 0 -8 -7 13 -9 13 -10 0 -11 -15 -2 -31 -4 -87 -15 -38 -7
-46 11 -10 22 58 17 78 67 25 59 -18 -3 -4 5 32 17 36 11 85 29 108 40 24 10
56 20 72 21 15 1 26 5 24 8 -2 4 5 9 16 12 11 3 20 10 20 17 0 12 -41 4 -50
-10 -6 -8 -206 -75 -344 -115 -233 -66 -613 -115 -901 -115 -237 0 -617 50
-844 111 -114 31 -334 106 -361 124 -22 14 -170 74 -170 69z"/>
<path d="M5086 1748 c3 -9 -1 -27 -10 -40 -12 -19 -12 -26 -2 -40 7 -10 17
-14 21 -10 5 4 5 -2 1 -12 -5 -16 -4 -17 9 -6 13 11 15 9 15 -14 0 -14 -5 -26
-11 -26 -5 0 -7 5 -4 10 3 6 -2 10 -11 10 -14 0 -15 -3 -7 -11 14 -14 -12 -73
-27 -64 -6 3 -7 -1 -4 -9 5 -12 13 -6 35 24 19 26 37 40 52 40 14 0 18 -3 10
-8 -16 -10 73 -152 95 -152 13 0 12 3 -4 15 -16 12 -17 14 -2 15 9 0 26 -12
38 -27 12 -16 18 -22 14 -14 -3 7 0 17 7 22 11 7 10 9 -3 9 -10 0 -18 7 -18
16 0 14 3 14 15 4 8 -7 15 -8 15 -2 0 15 -28 35 -39 28 -6 -4 -8 -13 -4 -21 4
-11 1 -13 -11 -9 -21 8 -20 21 2 33 16 9 14 16 -23 88 -22 43 -43 80 -46 83
-10 9 -33 55 -31 63 1 4 -10 7 -25 6 -27 0 -27 -1 -6 -11 26 -13 38 -38 18
-38 -7 0 -25 15 -40 33 -14 17 -23 24 -19 15z"/>
<path d="M4414 1729 c-2 -4 3 -12 11 -19 8 -7 15 -18 15 -25 0 -6 9 -20 21
-31 19 -17 21 -18 30 -1 13 23 28 22 26 -2 0 -11 -5 -17 -9 -15 -4 3 -8 2 -8
-1 0 -9 53 -51 60 -48 3 1 12 -5 21 -13 39 -35 153 -63 194 -48 14 6 14 9 0
30 -19 29 -6 32 15 4 10 -14 17 -17 27 -8 18 14 17 32 -1 25 -9 -4 -17 2 -21
14 -4 10 -11 19 -18 19 -8 0 -8 3 1 12 19 19 15 23 -24 26 -29 2 -35 -1 -30
-13 8 -20 14 -42 9 -33 -3 4 -20 10 -39 14 -19 3 -34 10 -34 14 0 5 10 6 23 4
20 -4 21 -4 2 5 -11 5 -29 10 -39 10 -16 1 -17 -2 -8 -11 17 -17 15 -26 -9
-39 -13 -7 -19 -7 -15 -1 3 6 3 13 -2 16 -4 2 -9 -5 -9 -16 -2 -15 3 -19 17
-15 12 3 17 0 13 -9 -9 -25 -63 10 -55 36 2 9 -2 7 -12 -5 -15 -20 -15 -20
-16 1 0 12 7 27 15 34 14 11 13 14 -2 25 -26 17 -61 25 -65 13 -2 -5 -11 -6
-21 -3 -9 4 -14 12 -10 18 3 5 1 7 -5 3 -18 -11 -25 14 -8 27 14 10 13 12 -10
12 -14 0 -28 -3 -30 -6z"/>
<path d="M5736 1728 c6 -10 -25 -43 -33 -35 -8 9 -46 -30 -39 -41 3 -6 -1 -12
-9 -15 -9 -4 -12 -1 -8 9 6 16 -22 20 -32 5 -8 -14 -65 -41 -65 -31 0 4 15 21
33 36 29 24 29 26 7 18 -14 -4 -38 -9 -55 -10 -16 0 -39 -5 -49 -9 -12 -5 -37
-2 -67 8 -64 23 -76 22 -110 -12 -36 -37 -38 -54 -4 -41 16 6 26 6 31 -1 4 -8
10 -7 16 2 6 10 8 5 6 -15 -2 -16 -9 -32 -17 -34 -8 -3 -11 0 -7 6 3 6 3 17 0
25 -8 23 -63 2 -61 -23 1 -10 4 -17 8 -14 4 2 10 0 14 -6 3 -5 1 -10 -4 -10
-6 0 -11 -4 -11 -10 0 -5 7 -10 15 -10 9 0 18 -7 22 -16 5 -13 8 -13 15 -2 7
9 8 3 4 -17 -3 -16 -3 -24 0 -17 3 6 11 9 16 5 8 -4 9 2 4 18 -4 13 -8 32 -7
42 0 39 54 74 81 53 13 -10 13 -9 1 7 -18 23 -8 33 12 12 9 -8 20 -15 26 -15
12 0 15 16 4 23 -5 2 -3 2 4 1 7 -2 15 1 18 6 7 11 45 9 45 -3 0 -5 -6 -7 -13
-4 -8 3 -20 2 -27 -3 -8 -5 1 -9 24 -12 21 -2 39 -1 42 4 9 15 44 29 44 18 0
-5 -7 -10 -15 -10 -8 0 -15 -4 -15 -10 0 -12 10 -13 28 -1 8 4 12 16 10 26 -2
10 3 20 11 23 8 3 11 0 7 -7 -11 -17 22 -25 41 -10 12 10 15 10 9 2 -5 -9 -1
-13 11 -13 11 0 2 -11 -27 -30 -48 -32 -70 -37 -70 -17 0 8 -3 7 -10 -3 -11
-18 6 -31 29 -22 36 12 155 98 176 127 43 58 41 66 -15 64 -27 -2 -47 -6 -44
-11z"/>
<path d="M5107 1435 c-11 -7 -25 -30 -32 -51 -7 -21 -20 -39 -30 -40 -39 -6
-41 -41 -3 -85 18 -22 26 -27 22 -14 -4 11 -11 25 -16 31 -4 6 -5 20 -1 29 4
12 3 16 -5 11 -6 -3 -14 -1 -18 5 -4 8 -3 9 4 5 7 -4 12 -1 12 6 0 9 3 9 10
-2 6 -9 13 -11 18 -5 14 19 40 14 34 -7 -3 -11 -10 -17 -18 -14 -8 3 -14 -1
-14 -9 0 -8 7 -15 15 -15 8 0 15 5 15 11 0 6 5 7 13 2 6 -4 19 -6 29 -5 9 2
19 -2 23 -7 6 -11 -18 -66 -34 -75 -13 -8 -42 4 -35 15 3 5 10 6 16 3 7 -4 8
-2 4 5 -4 6 -2 18 4 26 10 12 9 15 -4 15 -10 0 -14 -4 -11 -10 3 -5 -3 -17
-14 -27 -15 -12 -18 -20 -10 -30 6 -7 16 -10 22 -6 6 4 8 0 4 -10 -3 -10 -2
-17 3 -17 6 0 10 5 10 11 0 5 4 8 8 5 8 -5 57 82 54 96 -1 4 7 12 18 18 28 15
25 27 -17 70 -21 20 -39 43 -41 51 -6 24 -16 28 -35 14z"/>
</g>
</svg>
